<?xml version="1.0"?>
<svg xmlns="http://www.w3.org/2000/svg" xmlns:xlink="http://www.w3.org/1999/xlink" version="1.1" id="Capa_1" x="0px" y="0px" viewBox="0 0 511.47 511.47" style="enable-background:new 0 0 511.47 511.47;" xml:space="preserve" width="512px" height="512px" class=""><g><path style="fill:#4954A5" d="M35.963,187.805c0.624-15.983,10.708-23.975,23.976-23.975h351.636  c21.978,0,39.959,17.981,39.959,39.958v39.959v15.983h-66.97c-4.395,0-10.232,2.794-13.104,6.15l-29.735,35.65  c-2.794,3.355-2.794,8.944,0,12.3l29.735,35.65c2.871,3.355,8.709,6.15,13.104,6.15h66.97v15.983v47.95  c0,21.977-17.981,39.959-39.959,39.959H59.938c-13.268,0-23.976-10.708-23.976-23.976V187.805H35.963z" data-original="#DA4453" class="active-path" data-old_color="#DA4453"/><g style="opacity:0.2;">
	<path d="M411.574,163.831h-15.983c21.978,0,39.959,17.981,39.959,39.958v39.959v15.983h15.983v-15.983v-39.959   C451.534,181.812,433.552,163.831,411.574,163.831z" data-original="#000000" class=""/>
</g><path style="fill:#F6BB42;" d="M403.583,347.64c4.394,0,7.991,3.598,7.991,7.992s-3.598,7.991-7.991,7.991  c-4.395,0-7.992-3.598-7.992-7.991C395.591,351.238,399.189,347.64,403.583,347.64z" data-original="#F6BB42" class=""/><path style="fill:#FFCE54;" d="M379.608,355.632c0-13.268,10.708-23.976,23.976-23.976s23.975,10.708,23.975,23.976  s-10.707,23.975-23.975,23.975S379.608,368.9,379.608,355.632z M395.591,355.632c0,4.394,3.598,7.991,7.992,7.991  s7.991-3.598,7.991-7.991c0-4.395-3.598-7.992-7.991-7.992C399.189,347.64,395.591,351.238,395.591,355.632z" data-original="#FFCE54"/><path style="fill:#3F4784" d="M451.534,403.583h-66.97c-4.395,0-10.232-2.794-13.104-6.15l-29.735-35.65  c-2.794-3.356-2.794-8.944,0-12.3l29.735-35.65c2.871-3.355,8.709-6.15,13.104-6.15h66.97h15.983c4.394,0,7.991,3.598,7.991,7.992  v79.917c0,4.394-3.598,7.992-7.991,7.992h-15.983V403.583z M403.583,331.657c-13.268,0-23.976,10.708-23.976,23.976  s10.708,23.975,23.976,23.975s23.975-10.707,23.975-23.975S416.85,331.657,403.583,331.657z" data-original="#ED5565" class="" data-old_color="#ED5565"/><g style="opacity:0.2;">
	<path d="M467.517,307.681h-15.983c4.394,0,7.991,3.598,7.991,7.992v79.917c0,4.394-3.598,7.992-7.991,7.992h15.983   c4.394,0,7.991-3.599,7.991-7.992v-79.917C475.508,311.279,471.91,307.681,467.517,307.681z" data-original="#000000" class=""/>
</g><g style="opacity:0.3;">
	<path style="fill:#FFFFFF;" d="M357.708,361.782c-2.794-3.356-2.794-8.944,0-12.3l29.734-35.65c2.873-3.355,8.711-6.15,13.104-6.15   h-15.983c-4.395,0-10.232,2.795-13.104,6.15l-29.735,35.65c-2.794,3.355-2.794,8.943,0,12.3l29.735,35.65   c2.871,3.356,8.709,6.15,13.104,6.15h15.983c-4.394,0-10.231-2.794-13.104-6.15L357.708,361.782z" data-original="#FFFFFF"/>
</g><path style="fill:#3F4784" d="M35.963,187.805c0,13.268,10.708,23.976,23.976,23.976h351.636c21.978,0,39.959,17.981,39.959,39.959  v39.958v15.983h-66.97c-4.395,0-10.232,2.795-13.104,6.15l-29.735,35.65c-2.794,3.355-2.794,8.943,0,12.3l29.735,35.65  c2.871,3.356,8.709,6.15,13.104,6.15h66.97v15.983v47.95c0,21.978-17.981,39.959-39.959,39.959H59.938  c-13.268,0-23.976-10.708-23.976-23.976V187.805H35.963z" data-original="#ED5565" class="" data-old_color="#ED5565"/><g style="opacity:0.2;">
	<path d="M411.574,211.781h-15.983c21.978,0,39.959,17.981,39.959,39.959v39.958v15.983h15.983v-15.983V251.74   C451.534,229.762,433.552,211.781,411.574,211.781z" data-original="#000000" class=""/>
	<path d="M435.549,419.566v47.95c0,21.978-17.981,39.959-39.959,39.959h15.983c21.978,0,39.959-17.981,39.959-39.959v-47.95v-15.983   h-15.983V419.566z" data-original="#000000" class=""/>
</g><g style="opacity:0.3;">
	<path style="fill:#FFFFFF;" d="M51.946,483.5V210.321c-9.303-3.293-15.983-12.065-15.983-22.516v295.694   c0,13.268,10.708,23.976,23.976,23.976h15.983C62.654,507.475,51.946,496.767,51.946,483.5z" data-original="#FFFFFF"/>
</g><polygon style="fill:#82AF48;" points="378.492,187.805 412.715,60.094 308.9,32.216 308.9,187.805 " data-original="#82AF48" class=""/><polygon style="fill:#A0D468;" points="358.848,187.805 384.822,91.187 374.629,67.29 303.507,48.122 303.507,187.805 " data-original="#A0D468"/><rect x="91.905" y="3.996" style="fill:#82AF48;" width="215.78" height="183.81" data-original="#82AF48" class=""/><polygon style="fill:#A0D468;" points="291.699,187.805 291.699,43.955 275.715,19.979 123.868,19.979 107.888,43.955   107.888,187.805 " data-original="#A0D468"/><g style="opacity:0.2;">
	<polygon points="378.492,187.805 91.905,187.805 91.905,171.822 383.923,171.822  " data-original="#000000" class=""/>
</g><g style="opacity:0.2;">
	<path d="M51.946,187.805c0-10.427,6.692-19.206,15.983-22.508c-2.513-0.89-5.174-1.467-7.991-1.467   c-13.24,0-23.976,10.73-23.976,23.975s10.735,23.976,23.976,23.976c2.817,0,5.479-0.577,7.991-1.468   C58.638,207.012,51.946,198.232,51.946,187.805z" data-original="#000000" class=""/>
</g><g>
	<path style="fill:#3A3847" d="M467.517,407.578h-82.922c-5.627,0-12.573-3.254-16.179-7.578l-29.72-35.666   c-4.074-4.877-4.074-12.525,0-17.403l29.72-35.667c3.605-4.323,10.552-7.577,16.179-7.577h82.922   c6.61,0,11.987,5.377,11.987,11.987v79.917C479.505,402.201,474.128,407.578,467.517,407.578z M384.595,311.677   c-3.208,0-7.984,2.24-10.045,4.706l-29.719,35.667c-1.592,1.903-1.592,5.26,0,7.164l29.719,35.666   c2.061,2.466,6.837,4.706,10.045,4.706h82.922c2.201,0,3.996-1.795,3.996-3.996v-79.917c0-2.201-1.795-3.996-3.996-3.996   L384.595,311.677L384.595,311.677z" data-original="#3A3847" class="" data-old_color="#3A3847"/>
	<path style="fill:#3A3847" d="M403.583,383.603c-15.422,0-27.972-12.55-27.972-27.971c0-15.422,12.55-27.972,27.972-27.972   c15.421,0,27.971,12.55,27.971,27.972C431.553,371.053,419.005,383.603,403.583,383.603z M403.583,335.653   c-11.021,0-19.979,8.959-19.979,19.979s8.959,19.979,19.979,19.979s19.979-8.959,19.979-19.979   C423.561,344.612,414.603,335.653,403.583,335.653z" data-original="#3A3847" class="" data-old_color="#3A3847"/>
	<path style="fill:#3A3847" d="M403.583,367.62c-6.611,0-11.988-5.378-11.988-11.987c0-6.611,5.377-11.988,11.988-11.988   c6.609,0,11.987,5.377,11.987,11.988C415.57,362.242,410.193,367.62,403.583,367.62z M403.583,351.636   c-2.201,0-3.996,1.795-3.996,3.996c0,2.2,1.795,3.995,3.996,3.995c2.2,0,3.995-1.795,3.995-3.995   C407.578,353.431,405.784,351.636,403.583,351.636z" data-original="#3A3847" class="" data-old_color="#3A3847"/>
	<path style="fill:#3A3847" d="M156.077,151.842c-2.205,0-4.035-1.787-4.035-3.995c0-2.209,1.748-3.996,3.957-3.996h0.078   c2.208,0,3.995,1.787,3.995,3.996C160.072,150.055,158.285,151.842,156.077,151.842z" data-original="#3A3847" class="" data-old_color="#3A3847"/>
	<path style="fill:#3A3847" d="M156.077,135.859c-2.205,0-4.035-1.787-4.035-3.995c0-2.209,1.748-3.996,3.957-3.996h0.078   c2.208,0,3.995,1.787,3.995,3.996C160.072,134.072,158.285,135.859,156.077,135.859z" data-original="#3A3847" class="" data-old_color="#3A3847"/>
	<path style="fill:#3A3847" d="M156.077,119.876c-2.205,0-4.035-1.787-4.035-3.995c0-2.209,1.748-3.996,3.957-3.996h0.078   c2.208,0,3.995,1.787,3.995,3.996C160.072,118.089,158.285,119.876,156.077,119.876z" data-original="#3A3847" class="" data-old_color="#3A3847"/>
	<path style="fill:#3A3847" d="M156.077,103.892c-2.205,0-4.035-1.787-4.035-3.995c0-2.209,1.748-3.996,3.957-3.996h0.078   c2.208,0,3.995,1.787,3.995,3.996C160.072,102.105,158.285,103.892,156.077,103.892z" data-original="#3A3847" class="" data-old_color="#3A3847"/>
	<path style="fill:#3A3847" d="M156.077,87.909c-2.205,0-4.035-1.787-4.035-3.996c0-2.208,1.748-3.995,3.957-3.995h0.078   c2.208,0,3.995,1.787,3.995,3.995C160.072,86.122,158.285,87.909,156.077,87.909z" data-original="#3A3847" class="" data-old_color="#3A3847"/>
	<path style="fill:#3A3847" d="M156.077,71.925c-2.205,0-4.035-1.787-4.035-3.996c0-2.208,1.748-3.995,3.957-3.995h0.078   c2.208,0,3.995,1.787,3.995,3.995C160.072,70.138,158.285,71.925,156.077,71.925z" data-original="#3A3847" class="" data-old_color="#3A3847"/>
	<path style="fill:#3A3847" d="M291.699,175.818c-2.209,0-3.996-1.787-3.996-3.996V39.56c-7.82-1.6-13.985-7.765-15.577-15.585   h-144.66c-1.592,7.82-7.766,13.985-15.581,15.585v132.262c0,2.209-1.788,3.996-3.996,3.996c-2.209,0-3.996-1.787-3.996-3.996   V35.963c0-2.208,1.787-3.995,3.996-3.995c6.61,0,11.987-5.378,11.987-11.988c0-2.208,1.787-3.996,3.996-3.996h151.843   c2.209,0,3.996,1.788,3.996,3.996c0,6.61,5.377,11.988,11.987,11.988c2.209,0,3.996,1.787,3.996,3.995v135.859   C295.695,174.031,293.908,175.818,291.699,175.818z" data-original="#3A3847" class="" data-old_color="#3A3847"/>
	<path style="fill:#3A3847" d="M307.682,175.818c-2.208,0-3.995-1.787-3.995-3.996V7.992H95.901v163.83   c0,2.209-1.788,3.996-3.996,3.996c-2.209,0-3.996-1.787-3.996-3.996V3.996C87.909,1.788,89.696,0,91.905,0h215.776   c2.209,0,3.996,1.788,3.996,3.996v167.826C311.677,174.031,309.891,175.818,307.682,175.818z" data-original="#3A3847" class="" data-old_color="#3A3847"/>
	<path style="fill:#3A3847" d="M243.748,159.835c-2.209,0-3.996-1.787-3.996-3.996v-95.9c0-2.209,1.787-3.996,3.996-3.996   c2.208,0,3.996,1.787,3.996,3.996v95.9C247.744,158.047,245.956,159.835,243.748,159.835z" data-original="#3A3847" class="" data-old_color="#3A3847"/>
	<path style="fill:#3A3847" d="M219.772,151.842h-39.958c-2.209,0-3.996-1.787-3.996-3.995c0-2.209,1.787-3.996,3.996-3.996h39.958   c2.209,0,3.996,1.787,3.996,3.996C223.768,150.055,221.981,151.842,219.772,151.842z" data-original="#3A3847" class="" data-old_color="#3A3847"/>
	<path style="fill:#3A3847" d="M207.785,127.868h-15.983c-8.815,0-15.983-7.173-15.983-15.983c0-8.812,7.168-15.983,15.983-15.983   h15.983c8.815,0,15.983,7.172,15.983,15.983C223.768,120.695,216.6,127.868,207.785,127.868z M191.801,103.892   c-4.405,0-7.992,3.582-7.992,7.992c0,4.409,3.587,7.991,7.992,7.991h15.983c4.405,0,7.991-3.582,7.991-7.991   c0-4.41-3.586-7.992-7.991-7.992H191.801z" data-original="#3A3847" class="" data-old_color="#3A3847"/>
	<path style="fill:#3A3847" d="M207.785,87.909h-15.983c-8.815,0-15.983-7.172-15.983-15.983s7.168-15.983,15.983-15.983h15.983   c8.815,0,15.983,7.173,15.983,15.983C223.768,80.737,216.6,87.909,207.785,87.909z M191.801,63.934   c-4.405,0-7.992,3.582-7.992,7.991s3.587,7.992,7.992,7.992h15.983c4.405,0,7.991-3.583,7.991-7.992s-3.586-7.991-7.991-7.991   H191.801z" data-original="#3A3847" class="" data-old_color="#3A3847"/>
	<path style="fill:#3A3847" d="M187.805,159.835c-1.022,0-2.045-0.391-2.825-1.171l-7.991-7.991c-1.562-1.562-1.562-4.09,0-5.65   c1.561-1.562,4.089-1.562,5.65,0l7.991,7.991c1.561,1.562,1.561,4.09,0,5.65C189.85,159.444,188.828,159.835,187.805,159.835z" data-original="#3A3847" class="" data-old_color="#3A3847"/>
	<path style="fill:#3A3847" d="M219.772,159.835c-2.208,0-3.996-1.787-3.996-3.996v-15.984c0-2.208,1.788-3.996,3.996-3.996   c2.209,0,3.996,1.788,3.996,3.996v15.983C223.768,158.047,221.981,159.835,219.772,159.835z" data-original="#3A3847" class="" data-old_color="#3A3847"/>
	<path style="fill:#3A3847" d="M367.385,175.818c-0.344,0-0.688-0.047-1.03-0.133c-2.139-0.577-3.403-2.763-2.825-4.901   l21.837-81.493c-3.489-1.725-6.392-4.441-8.382-7.883c-1.99-3.449-2.888-7.32-2.639-11.207l-49.292-13.205   c-2.139-0.577-3.403-2.763-2.825-4.901c0.562-2.123,2.778-3.348,4.885-2.825l52.774,14.142c1.03,0.281,1.903,0.944,2.435,1.865   s0.671,2.014,0.391,3.036c-0.828,3.099-0.406,6.329,1.193,9.1c1.601,2.771,4.184,4.745,7.282,5.572   c1.03,0.273,1.904,0.944,2.435,1.865c0.531,0.914,0.671,2.006,0.391,3.036l-22.773,84.975   C370.764,174.639,369.15,175.818,367.385,175.818z" data-original="#3A3847" class="" data-old_color="#3A3847"/>
	<path style="fill:#3A3847" d="M383.947,175.818c-0.343,0-0.687-0.047-1.029-0.133c-2.139-0.577-3.403-2.763-2.826-4.894   l28.884-107.856l-83.921-22.484c-2.139-0.578-3.403-2.764-2.825-4.901c0.562-2.123,2.778-3.349,4.885-2.825L414.9,56.247   c2.138,0.577,3.402,2.763,2.824,4.894l-29.922,111.712C387.335,174.639,385.711,175.818,383.947,175.818z" data-original="#3A3847" class="" data-old_color="#3A3847"/>
	<path style="fill:#3A3847" d="M451.534,255.735c-2.209,0-3.996-1.787-3.996-3.995c0-19.831-16.132-35.963-35.963-35.963   c-2.208,0-3.996-1.787-3.996-3.996s1.788-3.996,3.996-3.996c24.24,0,43.954,19.722,43.954,43.955   C455.529,253.948,453.742,255.735,451.534,255.735z" data-original="#3A3847" class="" data-old_color="#3A3847"/>
	<path style="fill:#3A3847" d="M411.574,511.47H59.938c-2.209,0-3.996-1.787-3.996-3.995c0-2.209,1.787-3.996,3.996-3.996h351.636   c19.831,0,35.963-16.132,35.963-35.963c0-2.209,1.787-3.996,3.996-3.996c2.208,0,3.995,1.787,3.995,3.996   C455.529,491.749,435.815,511.47,411.574,511.47z" data-original="#3A3847" class="" data-old_color="#3A3847"/>
	<path style="fill:#3A3847" d="M451.534,220.444c-2.209,0-3.996-1.787-3.996-3.996v-12.659c0-19.831-16.132-35.962-35.963-35.962   c-2.208,0-3.996-1.788-3.996-3.996c0-2.209,1.788-3.996,3.996-3.996c24.24,0,43.954,19.722,43.954,43.954v12.659   C455.529,218.657,453.742,220.444,451.534,220.444z" data-original="#3A3847" class="" data-old_color="#3A3847"/>
	<path style="fill:#3A3847" d="M59.938,215.777c-15.422,0-27.972-12.55-27.972-27.972c0-2.208,1.787-3.995,3.996-3.995   s3.996,1.787,3.996,3.995c0,11.021,8.963,19.979,19.979,19.979c2.208,0,3.995,1.787,3.995,3.996S62.146,215.777,59.938,215.777z" data-original="#3A3847" class="" data-old_color="#3A3847"/>
	<path style="fill:#3A3847" d="M59.938,511.47c-15.422,0-27.972-12.549-27.972-27.971c0-2.209,1.787-3.996,3.996-3.996   s3.996,1.787,3.996,3.996c0,11.02,8.963,19.979,19.979,19.979c2.208,0,3.995,1.787,3.995,3.996   C63.933,509.683,62.146,511.47,59.938,511.47z" data-original="#3A3847" class="" data-old_color="#3A3847"/>
	<path style="fill:#3A3847" d="M35.963,191.801c-2.209,0-3.996-1.787-3.996-3.996c0-15.421,12.55-27.971,27.972-27.971   c2.208,0,3.995,1.787,3.995,3.996c0,2.208-1.787,3.996-3.995,3.996c-11.017,0-19.979,8.959-19.979,19.979   C39.959,190.014,38.172,191.801,35.963,191.801z" data-original="#3A3847" class="" data-old_color="#3A3847"/>
	<path style="fill:#3A3847" d="M411.574,215.777H59.938c-2.209,0-3.996-1.787-3.996-3.996s1.787-3.996,3.996-3.996h351.636   c2.209,0,3.996,1.787,3.996,3.996S413.784,215.777,411.574,215.777z" data-original="#3A3847" class="" data-old_color="#3A3847"/>
	<path style="fill:#3A3847" d="M403.583,191.801H67.929c-2.209,0-3.996-1.787-3.996-3.996c0-2.208,1.787-3.995,3.996-3.995h335.653   c2.208,0,3.995,1.787,3.995,3.995C407.578,190.014,405.792,191.801,403.583,191.801z" data-original="#3A3847" class="" data-old_color="#3A3847"/>
	<path style="fill:#3A3847" d="M35.963,487.496c-2.209,0-3.996-1.787-3.996-3.996V187.805c0-2.208,1.787-3.995,3.996-3.995   s3.996,1.787,3.996,3.995v295.694C39.959,485.709,38.172,487.496,35.963,487.496z" data-original="#3A3847" class="" data-old_color="#3A3847"/>
	<path style="fill:#3A3847" d="M411.574,167.827h-7.991c-2.209,0-3.996-1.788-3.996-3.996c0-2.209,1.787-3.996,3.996-3.996h7.991   c2.209,0,3.996,1.787,3.996,3.996C415.57,166.039,413.784,167.827,411.574,167.827z" data-original="#3A3847" class="" data-old_color="#3A3847"/>
	<path style="fill:#3A3847" d="M75.922,167.827H59.938c-2.209,0-3.996-1.788-3.996-3.996c0-2.209,1.787-3.996,3.996-3.996h15.983   c2.208,0,3.995,1.787,3.995,3.996C79.917,166.039,78.13,167.827,75.922,167.827z" data-original="#3A3847" class="" data-old_color="#3A3847"/>
	<path style="fill:#3A3847" d="M75.922,239.752H67.93c-2.209,0-3.996-1.787-3.996-3.995c0-2.209,1.787-3.996,3.996-3.996h7.992   c2.208,0,3.995,1.787,3.995,3.996C79.917,237.964,78.13,239.752,75.922,239.752z" data-original="#3A3847" class="" data-old_color="#3A3847"/>
	<path style="fill:#3A3847" d="M387.974,239.752H372.38c-2.216,0-3.995-1.787-3.995-3.995c0-2.209,1.779-3.996,3.995-3.996h15.594   c2.217,0,3.996,1.787,3.996,3.996C391.97,237.964,390.19,239.752,387.974,239.752z M356.772,239.752h-15.601   c-2.209,0-3.996-1.787-3.996-3.995c0-2.209,1.787-3.996,3.996-3.996h15.601c2.209,0,3.996,1.787,3.996,3.996   C360.768,237.964,358.98,239.752,356.772,239.752z M325.57,239.752h-15.608c-2.201,0-3.996-1.787-3.996-3.995   c0-2.209,1.795-3.996,3.996-3.996h15.608c2.201,0,3.996,1.787,3.996,3.996C329.565,237.964,327.771,239.752,325.57,239.752z    M294.359,239.752h-15.601c-2.209,0-3.996-1.787-3.996-3.995c0-2.209,1.787-3.996,3.996-3.996h15.601   c2.209,0,3.996,1.787,3.996,3.996C298.355,237.964,296.569,239.752,294.359,239.752z M263.154,239.752h-15.601   c-2.209,0-3.996-1.787-3.996-3.995c0-2.209,1.787-3.996,3.996-3.996h15.601c2.213,0,3.992,1.787,3.992,3.996   C267.146,237.964,265.367,239.752,263.154,239.752z M231.947,239.752h-15.601c-2.209,0-3.996-1.787-3.996-3.995   c0-2.209,1.787-3.996,3.996-3.996h15.601c2.209,0,3.996,1.787,3.996,3.996C235.943,237.964,234.156,239.752,231.947,239.752z    M200.741,239.752H185.14c-2.209,0-3.996-1.787-3.996-3.995c0-2.209,1.787-3.996,3.996-3.996h15.601   c2.209,0,3.996,1.787,3.996,3.996C204.737,237.964,202.95,239.752,200.741,239.752z M169.535,239.752h-15.601   c-2.209,0-3.996-1.787-3.996-3.995c0-2.209,1.787-3.996,3.996-3.996h15.601c2.209,0,3.996,1.787,3.996,3.996   C173.531,237.964,171.744,239.752,169.535,239.752z M138.33,239.752h-15.602c-2.209,0-3.996-1.787-3.996-3.995   c0-2.209,1.787-3.996,3.996-3.996h15.602c2.208,0,3.995,1.787,3.995,3.996C142.325,237.964,140.538,239.752,138.33,239.752z    M107.124,239.752H91.522c-2.209,0-3.996-1.787-3.996-3.995c0-2.209,1.787-3.996,3.996-3.996h15.602   c2.208,0,3.995,1.787,3.995,3.996C111.119,237.964,109.332,239.752,107.124,239.752z" data-original="#3A3847" class="" data-old_color="#3A3847"/>
	<path style="fill:#3A3847" d="M411.574,239.752h-7.991c-2.209,0-3.996-1.787-3.996-3.995c0-2.209,1.787-3.996,3.996-3.996h7.991   c2.209,0,3.996,1.787,3.996,3.996C415.57,237.964,413.784,239.752,411.574,239.752z" data-original="#3A3847" class="" data-old_color="#3A3847"/>
	<path style="fill:#3A3847" d="M75.922,487.504H67.93c-2.209,0-3.996-1.787-3.996-3.996s1.787-3.996,3.996-3.996h7.992   c2.208,0,3.995,1.787,3.995,3.996S78.13,487.504,75.922,487.504z" data-original="#3A3847" class="" data-old_color="#3A3847"/>
	<path style="fill:#3A3847" d="M387.974,487.504H372.38c-2.216,0-3.995-1.787-3.995-3.996s1.779-3.996,3.995-3.996h15.594   c2.217,0,3.996,1.787,3.996,3.996S390.19,487.504,387.974,487.504z M356.772,487.504h-15.601c-2.209,0-3.996-1.787-3.996-3.996   s1.787-3.996,3.996-3.996h15.601c2.209,0,3.996,1.787,3.996,3.996S358.98,487.504,356.772,487.504z M325.57,487.504h-15.608   c-2.201,0-3.996-1.787-3.996-3.996s1.795-3.996,3.996-3.996h15.608c2.201,0,3.996,1.787,3.996,3.996   S327.771,487.504,325.57,487.504z M294.359,487.504h-15.601c-2.209,0-3.996-1.787-3.996-3.996s1.787-3.996,3.996-3.996h15.601   c2.209,0,3.996,1.787,3.996,3.996S296.569,487.504,294.359,487.504z M263.154,487.504h-15.601c-2.209,0-3.996-1.787-3.996-3.996   s1.787-3.996,3.996-3.996h15.601c2.213,0,3.992,1.787,3.992,3.996S265.367,487.504,263.154,487.504z M231.947,487.504h-15.601   c-2.209,0-3.996-1.787-3.996-3.996s1.787-3.996,3.996-3.996h15.601c2.209,0,3.996,1.787,3.996,3.996   S234.156,487.504,231.947,487.504z M200.741,487.504H185.14c-2.209,0-3.996-1.787-3.996-3.996s1.787-3.996,3.996-3.996h15.601   c2.209,0,3.996,1.787,3.996,3.996S202.95,487.504,200.741,487.504z M169.535,487.504h-15.601c-2.209,0-3.996-1.787-3.996-3.996   s1.787-3.996,3.996-3.996h15.601c2.209,0,3.996,1.787,3.996,3.996S171.744,487.504,169.535,487.504z M138.33,487.504h-15.602   c-2.209,0-3.996-1.787-3.996-3.996s1.787-3.996,3.996-3.996h15.602c2.208,0,3.995,1.787,3.995,3.996   S140.538,487.504,138.33,487.504z M107.124,487.504H91.522c-2.209,0-3.996-1.787-3.996-3.996s1.787-3.996,3.996-3.996h15.602   c2.208,0,3.995,1.787,3.995,3.996S109.332,487.504,107.124,487.504z" data-original="#3A3847" class="" data-old_color="#3A3847"/>
	<path style="fill:#3A3847" d="M411.574,487.504h-7.991c-2.209,0-3.996-1.787-3.996-3.996s1.787-3.996,3.996-3.996h7.991   c2.209,0,3.996,1.787,3.996,3.996S413.784,487.504,411.574,487.504z" data-original="#3A3847" class="" data-old_color="#3A3847"/>
	<path style="fill:#3A3847" d="M451.534,295.694c-2.209,0-3.996-1.787-3.996-3.996V251.74c0-2.209,1.787-3.996,3.996-3.996   c2.208,0,3.995,1.787,3.995,3.996v39.958C455.529,293.907,453.742,295.694,451.534,295.694z" data-original="#3A3847" class="" data-old_color="#3A3847"/>
	<path style="fill:#3A3847" d="M451.534,471.512c-2.209,0-3.996-1.787-3.996-3.996v-47.95c0-2.209,1.787-3.996,3.996-3.996   c2.208,0,3.995,1.787,3.995,3.996v47.95C455.529,469.725,453.742,471.512,451.534,471.512z" data-original="#3A3847" class="" data-old_color="#3A3847"/>
</g></g> </svg>
